<?xml version="1.0" standalone="no"?><!-- Generator: Gravit.io --><svg xmlns="http://www.w3.org/2000/svg" xmlns:xlink="http://www.w3.org/1999/xlink" style="isolation:isolate" viewBox="40.872 2667 1848.107 536.694" width="1848.107" height="536.694"><g id="Group"><g style="mix-blend-mode:screen;"><path d=" M 527.42 3060.146 L 535.92 2885.383 L 560.998 2885.383 L 569.503 3060.146 L 527.42 3060.146 Z  M 425.024 3060.146 L 433.53 2885.383 L 458.601 2885.383 L 467.11 3060.146 L 425.024 3060.146 Z  M 322.627 3060.146 L 331.131 2885.383 L 356.205 2885.383 L 364.711 3060.146 L 322.627 3060.146 Z  M 220.233 3060.146 L 228.74 2885.383 L 253.814 2885.383 L 262.318 3060.146 L 220.233 3060.146 Z  M 117.837 3060.146 L 126.343 2885.383 L 151.418 2885.383 L 159.921 3060.146 L 117.837 3060.146 Z  M 210.977 2885.383 L 202.473 3060.146 L 177.685 3060.146 L 169.181 2885.383 L 210.977 2885.383 Z  M 313.367 2885.383 L 304.863 3060.146 L 280.081 3060.146 L 271.578 2885.383 L 313.367 2885.383 Z  M 415.763 2885.383 L 407.263 3060.146 L 382.472 3060.146 L 373.974 2885.383 L 415.763 2885.383 Z  M 518.16 2885.383 L 509.651 3060.146 L 484.868 3060.146 L 476.37 2885.383 L 518.16 2885.383 Z  M 96.965 2822.484 L 96.965 2822.484 L 343.669 2716.656 L 590.373 2822.484 L 590.373 2867.639 L 569.447 2867.639 L 527.479 2867.639 L 467.05 2867.639 L 425.083 2867.639 L 364.654 2867.639 L 322.678 2867.639 L 262.264 2867.639 L 220.291 2867.639 L 159.873 2867.639 L 117.891 2867.639 L 96.965 2867.639 L 96.965 2822.484 Z  M 637.6 3123.051 L 608.113 3123.051 L 608.113 3069.014 C 608.113 3064.125 604.138 3060.146 599.242 3060.146 L 587.265 3060.146 L 578.764 2885.383 L 599.242 2885.383 C 604.138 2885.383 608.113 2881.411 608.113 2876.514 L 608.113 2813.609 C 608.113 2813.552 608.106 2813.49 608.106 2813.428 C 608.097 2813.229 608.088 2813.037 608.071 2812.844 C 608.063 2812.742 608.054 2812.64 608.038 2812.538 C 608.02 2812.363 607.998 2812.198 607.964 2812.028 C 607.946 2811.915 607.919 2811.801 607.896 2811.688 C 607.862 2811.535 607.828 2811.387 607.776 2811.24 C 607.751 2811.121 607.717 2810.997 607.675 2810.877 C 607.632 2810.748 607.581 2810.605 607.524 2810.469 C 607.474 2810.334 607.422 2810.197 607.371 2810.067 C 607.269 2809.846 607.176 2809.636 607.068 2809.432 C 607.009 2809.331 606.949 2809.24 606.89 2809.137 C 606.807 2809.001 606.729 2808.872 606.646 2808.736 C 606.578 2808.644 606.518 2808.554 606.45 2808.463 C 606.357 2808.333 606.255 2808.203 606.153 2808.072 C 606.096 2807.993 606.028 2807.908 605.961 2807.834 C 605.85 2807.704 605.734 2807.58 605.615 2807.455 C 605.549 2807.381 605.47 2807.313 605.397 2807.245 C 605.277 2807.121 605.15 2807.006 605.014 2806.893 C 604.941 2806.831 604.864 2806.763 604.787 2806.701 C 604.663 2806.593 604.518 2806.497 604.382 2806.4 C 604.292 2806.338 604.206 2806.27 604.113 2806.208 C 603.985 2806.123 603.852 2806.049 603.725 2805.969 C 603.614 2805.902 603.512 2805.845 603.404 2805.783 C 603.285 2805.726 603.175 2805.674 603.056 2805.619 C 602.923 2805.556 602.787 2805.482 602.645 2805.426 L 343.669 2698.057 L 352.541 2675.87 C 352.541 2670.967 348.566 2667 343.669 2667 C 338.775 2667 334.795 2670.967 334.795 2675.87 L 343.669 2698.057 L 84.693 2805.426 C 84.554 2805.482 84.418 2805.556 84.279 2805.619 C 84.166 2805.674 84.047 2805.726 83.937 2805.783 C 83.823 2805.839 83.721 2805.902 83.613 2805.969 C 83.483 2806.049 83.347 2806.123 83.219 2806.208 C 83.129 2806.27 83.044 2806.338 82.959 2806.4 C 82.817 2806.497 82.684 2806.593 82.542 2806.701 C 82.474 2806.763 82.395 2806.831 82.316 2806.893 C 82.185 2807.006 82.055 2807.121 81.928 2807.245 C 81.859 2807.313 81.792 2807.381 81.723 2807.455 C 81.599 2807.58 81.485 2807.704 81.375 2807.834 C 81.307 2807.908 81.245 2807.993 81.177 2808.072 C 81.074 2808.203 80.978 2808.333 80.882 2808.463 C 80.817 2808.554 80.754 2808.644 80.692 2808.736 C 80.608 2808.872 80.528 2809.001 80.448 2809.137 C 80.392 2809.24 80.329 2809.331 80.273 2809.432 C 80.165 2809.636 80.06 2809.846 79.97 2810.067 C 79.913 2810.197 79.864 2810.334 79.811 2810.469 C 79.76 2810.605 79.703 2810.748 79.664 2810.877 C 79.618 2810.997 79.59 2811.121 79.556 2811.24 C 79.51 2811.387 79.476 2811.535 79.442 2811.688 C 79.411 2811.801 79.395 2811.915 79.375 2812.028 C 79.343 2812.192 79.321 2812.363 79.293 2812.538 C 79.281 2812.64 79.275 2812.742 79.261 2812.844 C 79.247 2813.037 79.241 2813.229 79.23 2813.428 C 79.23 2813.49 79.227 2813.552 79.227 2813.609 L 79.227 2876.514 C 79.227 2881.411 83.194 2885.383 88.087 2885.383 L 108.577 2885.383 L 100.065 3060.146 L 88.105 3060.146 C 83.194 3060.146 79.227 3064.125 79.227 3069.014 L 79.227 3123.051 L 49.747 3123.051 C 44.845 3123.051 40.872 3127.023 40.872 3131.919 L 40.872 3194.819 C 40.872 3199.721 44.845 3203.694 49.747 3203.694 L 165.551 3203.694 C 170.445 3203.694 174.418 3199.721 174.418 3194.819 C 174.418 3189.928 170.445 3185.95 165.551 3185.95 L 58.61 3185.95 L 58.61 3140.794 L 96.965 3140.794 L 96.965 3123.051 L 96.965 3077.884 L 108.521 3077.884 L 169.238 3077.884 L 210.925 3077.884 L 271.628 3077.884 L 313.314 3077.884 L 374.025 3077.884 L 415.712 3077.884 L 476.419 3077.884 L 518.1 3077.884 L 578.815 3077.884 L 590.373 3077.884 L 590.373 3123.051 L 590.373 3140.794 L 628.725 3140.794 L 628.725 3185.95 L 150.882 3185.95 C 145.98 3185.95 153.549 3190.5 153.549 3195.39 C 153.549 3200.292 140.647 3203.694 145.549 3203.694 L 637.6 3203.694 C 642.494 3203.694 646.469 3199.721 646.469 3194.819 L 646.469 3131.919 C 646.469 3127.023 642.494 3123.051 637.6 3123.051 Z " fill="rgb(52,185,218)"/></g><g style="mix-blend-mode:screen;"><path d=" M 999.185 2910.386 L 999.185 2910.023 L 999.185 2910.023 Q 999.185 2910.749 999.185 2910.931 L 999.185 2910.931 L 999.185 2910.931 Q 999.185 2911.112 999.185 2911.112 L 999.185 2911.112 L 999.185 2911.112 Q 999.185 2911.475 999.185 2911.656 L 999.185 2911.656 L 999.185 2911.656 Q 999.185 2911.838 999.185 2912.201 L 999.185 2912.201 L 999.185 2912.201 Q 999.185 2942.69 972.145 2965.193 L 972.145 2965.193 L 972.145 2965.193 Q 945.104 2987.696 912.801 2989.874 L 912.801 2989.874 L 912.801 2989.874 Q 910.986 2990.237 909.353 2990.237 L 909.353 2990.237 L 909.353 2990.237 Q 907.719 2990.237 905.905 2990.237 L 905.905 2990.237 L 905.905 2990.237 Q 901.186 2990.237 896.649 2989.693 L 896.649 2989.693 L 896.649 2989.693 Q 892.112 2989.148 887.394 2988.059 L 887.394 2988.059 L 874.327 2984.793 L 874.327 3061.014 L 874.327 3061.014 Q 874.327 3067.184 874.872 3071.721 L 874.872 3071.721 L 874.872 3071.721 Q 875.416 3076.258 879.046 3080.614 L 879.046 3080.614 L 879.046 3080.614 Q 881.223 3083.518 886.668 3085.332 L 886.668 3085.332 L 886.668 3085.332 Q 892.112 3087.147 898.282 3088.962 L 898.282 3088.962 L 898.282 3088.962 Q 899.371 3089.325 900.46 3089.506 L 900.46 3089.506 L 900.46 3089.506 Q 901.549 3089.688 902.638 3090.051 L 902.638 3090.051 L 902.638 3090.051 Q 905.542 3090.777 908.082 3091.684 L 908.082 3091.684 L 908.082 3091.684 Q 910.623 3092.592 912.801 3093.318 L 912.801 3093.318 L 920.786 3096.221 L 797.743 3096.221 L 806.091 3093.68 L 806.091 3093.68 Q 808.994 3093.318 812.806 3092.229 L 812.806 3092.229 L 812.806 3092.229 Q 816.617 3091.14 820.609 3090.051 L 820.609 3090.051 L 820.609 3090.051 Q 824.239 3088.599 827.868 3087.329 L 827.868 3087.329 L 827.868 3087.329 Q 831.498 3086.058 834.402 3084.607 L 834.402 3084.607 L 834.402 3084.607 Q 836.216 3083.881 837.668 3082.792 L 837.668 3082.792 L 837.668 3082.792 Q 839.12 3081.703 839.846 3080.977 L 839.846 3080.977 L 839.846 3080.977 Q 840.935 3079.162 841.842 3077.529 L 841.842 3077.529 L 841.842 3077.529 Q 842.75 3075.895 843.113 3074.081 L 843.113 3074.081 L 843.113 3074.081 Q 843.476 3072.266 843.657 3070.451 L 843.657 3070.451 L 843.657 3070.451 Q 843.839 3068.636 843.839 3067.184 L 843.839 3067.184 L 843.839 3067.184 Q 843.839 3066.096 843.839 3065.188 L 843.839 3065.188 L 843.839 3065.188 Q 843.839 3064.281 843.839 3063.555 L 843.839 3063.555 L 843.839 3063.555 Q 843.476 3062.466 843.476 3061.559 L 843.476 3061.559 L 843.476 3061.559 Q 843.476 3060.651 843.476 3059.925 L 843.476 3059.925 L 843.476 2863.201 L 843.476 2863.201 Q 843.476 2858.483 842.931 2854.49 L 842.931 2854.49 L 842.931 2854.49 Q 842.387 2850.498 839.483 2846.868 L 839.483 2846.868 L 839.483 2846.868 Q 836.942 2843.965 831.316 2841.242 L 831.316 2841.242 L 831.316 2841.242 Q 825.691 2838.52 819.52 2835.98 L 819.52 2835.98 L 819.52 2835.98 Q 815.891 2834.528 812.443 2833.257 L 812.443 2833.257 L 812.443 2833.257 Q 808.994 2831.987 806.091 2830.898 L 806.091 2830.898 L 798.106 2827.631 L 864.164 2827.631 L 864.164 2827.631 Q 869.609 2827.994 874.69 2827.813 L 874.69 2827.813 L 874.69 2827.813 Q 879.771 2827.631 884.49 2827.631 L 884.49 2827.631 L 884.49 2827.631 Q 885.579 2827.631 886.305 2827.631 L 886.305 2827.631 L 886.305 2827.631 Q 887.031 2827.631 887.757 2827.631 L 887.757 2827.631 L 887.757 2827.631 Q 891.749 2827.269 895.923 2827.269 L 895.923 2827.269 L 895.923 2827.269 Q 900.097 2827.269 904.453 2827.269 L 904.453 2827.269 L 904.453 2827.269 Q 908.082 2827.269 912.075 2827.269 L 912.075 2827.269 L 912.075 2827.269 Q 916.067 2827.269 920.06 2827.631 L 920.06 2827.631 L 920.06 2827.631 Q 924.052 2827.631 928.408 2828.357 L 928.408 2828.357 L 928.408 2828.357 Q 932.763 2829.083 937.119 2830.172 L 937.119 2830.172 L 937.119 2830.172 Q 959.622 2835.617 978.859 2855.216 L 978.859 2855.216 L 978.859 2855.216 Q 998.096 2874.816 999.185 2910.386 L 999.185 2910.386 Z  M 909.897 2847.594 L 909.897 2847.594 L 909.897 2847.594 Q 908.808 2847.594 907.719 2847.594 L 907.719 2847.594 L 907.719 2847.594 Q 906.63 2847.594 905.179 2847.594 L 905.179 2847.594 L 905.179 2847.594 Q 903.364 2847.594 901.73 2847.594 L 901.73 2847.594 L 901.73 2847.594 Q 900.097 2847.594 898.282 2847.594 L 898.282 2847.594 L 898.282 2847.594 Q 892.112 2847.957 886.486 2848.683 L 886.486 2848.683 L 886.486 2848.683 Q 880.86 2849.409 878.683 2850.861 L 878.683 2850.861 L 878.683 2850.861 Q 875.416 2853.039 874.872 2856.668 L 874.872 2856.668 L 874.872 2856.668 Q 874.327 2860.298 874.327 2864.29 L 874.327 2864.29 L 874.327 2864.29 Q 874.327 2864.653 874.327 2864.835 L 874.327 2864.835 L 874.327 2864.835 Q 874.327 2865.016 874.327 2865.379 L 874.327 2865.379 L 874.327 2966.645 L 885.216 2968.097 L 885.216 2968.097 Q 889.571 2969.186 893.745 2969.548 L 893.745 2969.548 L 893.745 2969.548 Q 897.919 2969.911 901.912 2969.911 L 901.912 2969.911 L 901.912 2969.911 Q 929.86 2969.911 949.46 2953.941 L 949.46 2953.941 L 949.46 2953.941 Q 969.059 2937.971 969.059 2909.297 L 969.059 2909.297 L 969.059 2909.297 Q 969.059 2908.208 969.059 2907.301 L 969.059 2907.301 L 969.059 2907.301 Q 969.059 2906.394 969.059 2905.668 L 969.059 2905.668 L 969.059 2905.668 Q 967.971 2881.349 955.267 2868.464 L 955.267 2868.464 L 955.267 2868.464 Q 942.563 2855.579 928.045 2850.861 L 928.045 2850.861 L 928.045 2850.861 Q 923.327 2849.409 918.79 2848.683 L 918.79 2848.683 L 918.79 2848.683 Q 914.253 2847.957 909.897 2847.594 L 909.897 2847.594 Z  M 1157.072 2822.913 L 1157.072 2822.55 L 1157.072 2822.55 Q 1157.798 2822.913 1158.706 2822.913 L 1158.706 2822.913 L 1158.706 2822.913 Q 1159.613 2822.913 1160.702 2822.913 L 1160.702 2822.913 L 1160.702 2822.913 Q 1161.428 2822.913 1162.335 2822.913 L 1162.335 2822.913 L 1162.335 2822.913 Q 1163.243 2822.913 1163.968 2822.913 L 1163.968 2822.913 L 1163.968 2822.913 Q 1220.953 2822.913 1262.693 2860.298 L 1262.693 2860.298 L 1262.693 2860.298 Q 1304.434 2897.683 1305.885 2960.837 L 1305.885 2960.837 L 1305.885 2960.837 Q 1306.611 3024.355 1261.967 3062.647 L 1261.967 3062.647 L 1261.967 3062.647 Q 1217.323 3100.94 1156.709 3100.214 L 1156.709 3100.214 L 1156.709 3100.214 Q 1099.725 3099.851 1059.981 3059.381 L 1059.981 3059.381 L 1059.981 3059.381 Q 1020.237 3018.911 1020.237 2960.837 L 1020.237 2960.837 L 1020.237 2960.837 Q 1020.237 2904.216 1060.525 2864.653 L 1060.525 2864.653 L 1060.525 2864.653 Q 1100.814 2825.091 1157.072 2822.913 L 1157.072 2822.913 Z  M 1156.709 2843.239 L 1156.709 2842.876 L 1156.709 2842.876 Q 1107.347 2844.691 1078.492 2879.353 L 1078.492 2879.353 L 1078.492 2879.353 Q 1049.636 2914.016 1049.999 2960.112 L 1049.999 2960.112 L 1049.999 2960.112 Q 1050.725 3004.393 1081.214 3041.051 L 1081.214 3041.051 L 1081.214 3041.051 Q 1111.702 3077.71 1158.887 3080.614 L 1158.887 3080.614 L 1158.887 3080.614 Q 1159.976 3080.614 1160.883 3080.614 L 1160.883 3080.614 L 1160.883 3080.614 Q 1161.791 3080.614 1162.517 3080.614 L 1162.517 3080.614 L 1162.517 3080.614 Q 1163.243 3080.977 1164.15 3080.977 L 1164.15 3080.977 L 1164.15 3080.977 Q 1165.057 3080.977 1166.146 3080.977 L 1166.146 3080.977 L 1166.146 3080.977 Q 1210.427 3080.977 1243.094 3049.218 L 1243.094 3049.218 L 1243.094 3049.218 Q 1275.76 3017.459 1275.76 2967.371 L 1275.76 2967.371 L 1275.76 2967.371 Q 1275.76 2918.371 1242.549 2880.623 L 1242.549 2880.623 L 1242.549 2880.623 Q 1209.338 2842.876 1160.702 2843.239 L 1160.702 2843.239 L 1160.702 2843.239 Q 1160.339 2843.239 1159.794 2843.239 L 1159.794 2843.239 L 1159.794 2843.239 Q 1159.25 2843.239 1158.887 2843.239 L 1158.887 2843.239 L 1158.887 2843.239 Q 1158.161 2843.239 1157.798 2843.239 L 1157.798 2843.239 L 1157.798 2843.239 Q 1157.435 2843.239 1156.709 2843.239 L 1156.709 2843.239 Z  M 1402.796 2863.201 L 1402.796 2863.201 L 1402.796 3061.014 L 1402.796 3061.014 Q 1402.796 3065.007 1403.521 3068.636 L 1403.521 3068.636 L 1403.521 3068.636 Q 1404.247 3072.266 1406.788 3074.807 L 1406.788 3074.807 L 1406.788 3074.807 Q 1408.966 3076.984 1412.595 3077.71 L 1412.595 3077.71 L 1412.595 3077.71 Q 1416.225 3078.436 1419.855 3078.799 L 1419.855 3078.799 L 1419.855 3078.799 Q 1420.943 3078.799 1421.669 3078.799 L 1421.669 3078.799 L 1421.669 3078.799 Q 1422.395 3078.799 1423.121 3078.799 L 1423.121 3078.799 L 1467.765 3078.436 L 1467.765 3078.436 Q 1470.306 3078.799 1473.028 3078.618 L 1473.028 3078.618 L 1473.028 3078.618 Q 1475.75 3078.436 1478.654 3077.71 L 1478.654 3077.71 L 1478.654 3077.71 Q 1482.284 3077.347 1485.913 3076.258 L 1485.913 3076.258 L 1485.913 3076.258 Q 1489.543 3075.17 1492.083 3073.355 L 1492.083 3073.355 L 1492.083 3073.355 Q 1497.165 3070.088 1499.706 3065.007 L 1499.706 3065.007 L 1499.706 3065.007 Q 1502.246 3059.925 1504.424 3053.755 L 1504.424 3053.755 L 1504.424 3053.755 Q 1504.787 3052.303 1505.331 3051.033 L 1505.331 3051.033 L 1505.331 3051.033 Q 1505.876 3049.762 1506.239 3048.674 L 1506.239 3048.674 L 1510.957 3035.244 L 1510.957 3096.221 L 1326.211 3096.221 L 1334.559 3093.68 L 1334.559 3093.68 Q 1337.463 3093.318 1341.274 3092.229 L 1341.274 3092.229 L 1341.274 3092.229 Q 1345.085 3091.14 1349.078 3090.051 L 1349.078 3090.051 L 1349.078 3090.051 Q 1352.707 3088.599 1356.337 3087.329 L 1356.337 3087.329 L 1356.337 3087.329 Q 1359.966 3086.058 1362.87 3084.607 L 1362.87 3084.607 L 1362.87 3084.607 Q 1364.685 3083.881 1366.137 3082.792 L 1366.137 3082.792 L 1366.137 3082.792 Q 1367.588 3081.703 1368.314 3080.977 L 1368.314 3080.977 L 1368.314 3080.977 Q 1369.04 3079.888 1369.585 3078.799 L 1369.585 3078.799 L 1369.585 3078.799 Q 1370.129 3077.71 1370.855 3076.621 L 1370.855 3076.621 L 1370.855 3076.621 Q 1371.581 3074.444 1371.763 3072.266 L 1371.763 3072.266 L 1371.763 3072.266 Q 1371.944 3070.088 1371.944 3067.91 L 1371.944 3067.91 L 1371.944 3067.91 Q 1371.944 3066.459 1371.944 3064.825 L 1371.944 3064.825 L 1371.944 3064.825 Q 1371.944 3063.192 1371.944 3061.377 L 1371.944 3061.377 L 1371.944 2864.29 L 1371.944 2864.29 Q 1371.944 2863.927 1371.944 2863.02 L 1371.944 2863.02 L 1371.944 2863.02 Q 1371.944 2862.113 1372.307 2861.024 L 1372.307 2861.024 L 1372.307 2861.024 Q 1372.307 2860.298 1372.307 2859.209 L 1372.307 2859.209 L 1372.307 2859.209 Q 1372.307 2858.12 1372.307 2857.031 L 1372.307 2857.031 L 1372.307 2857.031 Q 1372.307 2855.579 1372.125 2854.309 L 1372.125 2854.309 L 1372.125 2854.309 Q 1371.944 2853.039 1371.581 2851.587 L 1371.581 2851.587 L 1371.581 2851.587 Q 1371.218 2849.409 1370.492 2847.413 L 1370.492 2847.413 L 1370.492 2847.413 Q 1369.766 2845.416 1368.314 2843.602 L 1368.314 2843.602 L 1368.314 2843.602 Q 1367.588 2842.876 1366.137 2841.787 L 1366.137 2841.787 L 1366.137 2841.787 Q 1364.685 2840.698 1362.87 2839.972 L 1362.87 2839.972 L 1362.87 2839.972 Q 1359.966 2838.52 1356.337 2837.25 L 1356.337 2837.25 L 1356.337 2837.25 Q 1352.707 2835.98 1349.078 2834.528 L 1349.078 2834.528 L 1349.078 2834.528 Q 1345.085 2833.439 1341.274 2832.35 L 1341.274 2832.35 L 1341.274 2832.35 Q 1337.463 2831.261 1334.559 2830.535 L 1334.559 2830.535 L 1326.211 2827.631 L 1449.254 2827.631 L 1441.269 2830.898 L 1441.269 2830.898 Q 1439.091 2832.35 1436.188 2833.076 L 1436.188 2833.076 L 1436.188 2833.076 Q 1433.284 2833.802 1430.017 2834.528 L 1430.017 2834.528 L 1430.017 2834.528 Q 1429.292 2834.891 1428.566 2835.072 L 1428.566 2835.072 L 1428.566 2835.072 Q 1427.84 2835.254 1427.114 2835.617 L 1427.114 2835.617 L 1427.114 2835.617 Q 1420.943 2837.068 1415.318 2839.065 L 1415.318 2839.065 L 1415.318 2839.065 Q 1409.692 2841.061 1407.514 2843.602 L 1407.514 2843.602 L 1407.514 2843.602 Q 1407.151 2844.314 1406.607 2844.849 L 1406.607 2844.849 L 1406.607 2844.849 Q 1406.062 2845.383 1405.699 2846.096 L 1405.699 2846.096 L 1405.699 2846.096 Q 1403.521 2850.016 1403.158 2854.114 L 1403.158 2854.114 L 1403.158 2854.114 Q 1402.796 2858.212 1402.796 2863.201 L 1402.796 2863.201 Z  M 1609.682 2863.201 L 1609.682 2863.201 L 1609.682 3061.014 L 1609.682 3061.014 Q 1609.682 3067.184 1610.227 3071.721 L 1610.227 3071.721 L 1610.227 3071.721 Q 1610.771 3076.258 1614.401 3080.614 L 1614.401 3080.614 L 1614.401 3080.614 Q 1616.578 3083.518 1622.204 3085.514 L 1622.204 3085.514 L 1622.204 3085.514 Q 1627.83 3087.51 1634 3088.962 L 1634 3088.962 L 1634 3088.962 Q 1635.089 3089.325 1635.997 3089.688 L 1635.997 3089.688 L 1635.997 3089.688 Q 1636.904 3090.051 1637.993 3090.051 L 1637.993 3090.051 L 1637.993 3090.051 Q 1640.897 3090.777 1643.437 3091.684 L 1643.437 3091.684 L 1643.437 3091.684 Q 1645.978 3092.592 1648.156 3093.318 L 1648.156 3093.318 L 1656.141 3096.221 L 1533.098 3096.221 L 1541.446 3093.68 L 1541.446 3093.68 Q 1544.35 3093.318 1548.161 3092.229 L 1548.161 3092.229 L 1548.161 3092.229 Q 1551.972 3091.14 1555.964 3090.051 L 1555.964 3090.051 L 1555.964 3090.051 Q 1559.594 3088.599 1563.223 3087.329 L 1563.223 3087.329 L 1563.223 3087.329 Q 1566.853 3086.058 1569.757 3084.607 L 1569.757 3084.607 L 1569.757 3084.607 Q 1571.572 3083.881 1573.023 3082.792 L 1573.023 3082.792 L 1573.023 3082.792 Q 1574.475 3081.703 1575.201 3080.977 L 1575.201 3080.977 L 1575.201 3080.977 Q 1576.29 3079.162 1577.197 3077.529 L 1577.197 3077.529 L 1577.197 3077.529 Q 1578.105 3075.895 1578.468 3074.081 L 1578.468 3074.081 L 1578.468 3074.081 Q 1578.831 3072.266 1579.012 3070.451 L 1579.012 3070.451 L 1579.012 3070.451 Q 1579.194 3068.636 1579.194 3067.184 L 1579.194 3067.184 L 1579.194 3067.184 Q 1579.194 3066.096 1579.194 3065.188 L 1579.194 3065.188 L 1579.194 3065.188 Q 1579.194 3064.281 1579.194 3063.555 L 1579.194 3063.555 L 1579.194 3063.555 Q 1578.831 3062.466 1578.831 3061.559 L 1578.831 3061.559 L 1578.831 3061.559 Q 1578.831 3060.651 1578.831 3059.925 L 1578.831 3059.925 L 1578.831 2864.29 L 1578.831 2864.29 Q 1578.831 2863.927 1578.831 2863.02 L 1578.831 2863.02 L 1578.831 2863.02 Q 1578.831 2862.113 1579.194 2861.024 L 1579.194 2861.024 L 1579.194 2861.024 Q 1579.194 2860.298 1579.194 2859.209 L 1579.194 2859.209 L 1579.194 2859.209 Q 1579.194 2858.12 1579.194 2857.031 L 1579.194 2857.031 L 1579.194 2857.031 Q 1579.194 2855.579 1579.012 2854.309 L 1579.012 2854.309 L 1579.012 2854.309 Q 1578.831 2853.039 1578.468 2851.587 L 1578.468 2851.587 L 1578.468 2851.587 Q 1578.105 2849.409 1577.379 2847.413 L 1577.379 2847.413 L 1577.379 2847.413 Q 1576.653 2845.416 1575.201 2843.602 L 1575.201 2843.602 L 1575.201 2843.602 Q 1574.475 2842.876 1573.023 2841.787 L 1573.023 2841.787 L 1573.023 2841.787 Q 1571.572 2840.698 1569.757 2839.972 L 1569.757 2839.972 L 1569.757 2839.972 Q 1566.853 2838.52 1563.223 2837.25 L 1563.223 2837.25 L 1563.223 2837.25 Q 1559.594 2835.98 1555.964 2834.528 L 1555.964 2834.528 L 1555.964 2834.528 Q 1551.972 2833.439 1548.161 2832.35 L 1548.161 2832.35 L 1548.161 2832.35 Q 1544.35 2831.261 1541.446 2830.535 L 1541.446 2830.535 L 1533.098 2827.631 L 1656.141 2827.631 L 1648.156 2830.898 L 1648.156 2830.898 Q 1645.978 2832.35 1643.074 2833.076 L 1643.074 2833.076 L 1643.074 2833.076 Q 1640.171 2833.802 1636.904 2834.528 L 1636.904 2834.528 L 1636.904 2834.528 Q 1636.178 2834.891 1635.452 2835.072 L 1635.452 2835.072 L 1635.452 2835.072 Q 1634.726 2835.254 1634 2835.617 L 1634 2835.617 L 1634 2835.617 Q 1627.83 2837.068 1622.204 2839.065 L 1622.204 2839.065 L 1622.204 2839.065 Q 1616.578 2841.061 1614.401 2843.602 L 1614.401 2843.602 L 1614.401 2843.602 Q 1614.038 2844.314 1613.493 2844.849 L 1613.493 2844.849 L 1613.493 2844.849 Q 1612.949 2845.383 1612.586 2846.096 L 1612.586 2846.096 L 1612.586 2846.096 Q 1610.408 2850.016 1610.045 2854.114 L 1610.045 2854.114 L 1610.045 2854.114 Q 1609.682 2858.212 1609.682 2863.201 L 1609.682 2863.201 Z  M 1759.221 2822.55 L 1759.221 2822.187 L 1759.221 2822.187 Q 1772.288 2822.55 1784.447 2824.183 L 1784.447 2824.183 L 1784.447 2824.183 Q 1796.606 2825.817 1804.591 2827.994 L 1804.591 2827.994 L 1804.591 2827.994 Q 1805.317 2827.994 1806.225 2828.176 L 1806.225 2828.176 L 1806.225 2828.176 Q 1807.132 2828.357 1807.858 2828.72 L 1807.858 2828.72 L 1815.117 2830.535 L 1815.843 2900.586 L 1800.599 2863.564 L 1800.599 2863.564 Q 1795.517 2850.861 1784.991 2846.687 L 1784.991 2846.687 L 1784.991 2846.687 Q 1774.466 2842.513 1757.77 2841.787 L 1757.77 2841.787 L 1757.77 2841.787 Q 1757.407 2841.787 1757.044 2841.787 L 1757.044 2841.787 L 1757.044 2841.787 Q 1756.681 2841.787 1756.318 2841.787 L 1756.318 2841.787 L 1756.318 2841.787 Q 1755.955 2841.787 1755.592 2841.787 L 1755.592 2841.787 L 1755.592 2841.787 Q 1755.229 2841.787 1754.866 2841.787 L 1754.866 2841.787 L 1754.866 2841.787 Q 1732.725 2841.787 1717.663 2856.85 L 1717.663 2856.85 L 1717.663 2856.85 Q 1702.6 2871.912 1702.6 2892.964 L 1702.6 2892.964 L 1702.6 2892.964 Q 1702.6 2906.757 1711.492 2916.738 L 1711.492 2916.738 L 1711.492 2916.738 Q 1720.385 2926.719 1730.911 2933.616 L 1730.911 2933.616 L 1730.911 2933.616 Q 1736.718 2937.245 1741.981 2939.967 L 1741.981 2939.967 L 1741.981 2939.967 Q 1747.244 2942.69 1751.236 2944.504 L 1751.236 2944.504 L 1751.236 2944.504 Q 1754.14 2945.956 1756.862 2947.408 L 1756.862 2947.408 L 1756.862 2947.408 Q 1759.584 2948.86 1762.488 2950.312 L 1762.488 2950.312 L 1762.488 2950.312 Q 1788.984 2963.741 1809.491 2979.711 L 1809.491 2979.711 L 1809.491 2979.711 Q 1829.998 2995.682 1830.724 3025.807 L 1830.724 3025.807 L 1830.724 3025.807 Q 1831.45 3062.103 1807.132 3081.34 L 1807.132 3081.34 L 1807.132 3081.34 Q 1782.814 3100.577 1745.066 3100.94 L 1745.066 3100.94 L 1745.066 3100.94 Q 1743.251 3100.94 1741.436 3100.94 L 1741.436 3100.94 L 1741.436 3100.94 Q 1739.622 3100.94 1737.807 3100.577 L 1737.807 3100.577 L 1737.807 3100.577 Q 1731.636 3100.214 1725.466 3099.306 L 1725.466 3099.306 L 1725.466 3099.306 Q 1719.296 3098.399 1714.214 3097.31 L 1714.214 3097.31 L 1714.214 3097.31 Q 1709.859 3096.221 1706.229 3095.495 L 1706.229 3095.495 L 1706.229 3095.495 Q 1702.6 3094.769 1700.422 3094.406 L 1700.422 3094.406 L 1684.815 3090.051 L 1683 3021.089 L 1695.341 3053.029 L 1695.341 3053.029 Q 1700.422 3066.822 1711.492 3072.629 L 1711.492 3072.629 L 1711.492 3072.629 Q 1722.562 3078.436 1734.903 3080.251 L 1734.903 3080.251 L 1734.903 3080.251 Q 1737.081 3080.614 1739.077 3080.795 L 1739.077 3080.795 L 1739.077 3080.795 Q 1741.073 3080.977 1742.888 3081.34 L 1742.888 3081.34 L 1742.888 3081.34 Q 1743.977 3081.34 1744.884 3081.521 L 1744.884 3081.521 L 1744.884 3081.521 Q 1745.792 3081.703 1746.518 3081.703 L 1746.518 3081.703 L 1746.518 3081.703 Q 1747.244 3081.703 1748.151 3081.703 L 1748.151 3081.703 L 1748.151 3081.703 Q 1749.059 3081.703 1750.147 3081.703 L 1750.147 3081.703 L 1750.147 3081.703 Q 1771.562 3081.703 1788.077 3068.636 L 1788.077 3068.636 L 1788.077 3068.636 Q 1804.591 3055.57 1804.228 3035.244 L 1804.228 3035.244 L 1804.228 3035.244 Q 1804.228 3034.881 1804.228 3034.518 L 1804.228 3034.518 L 1804.228 3034.518 Q 1804.228 3034.155 1804.228 3033.792 L 1804.228 3033.792 L 1804.228 3033.792 Q 1804.228 3033.792 1804.228 3033.429 L 1804.228 3033.429 L 1804.228 3033.429 Q 1804.228 3033.066 1804.228 3032.703 L 1804.228 3032.703 L 1804.228 3032.703 Q 1803.139 3013.467 1791.343 3003.122 L 1791.343 3003.122 L 1791.343 3003.122 Q 1779.547 2992.778 1763.214 2984.43 L 1763.214 2984.43 L 1763.214 2984.43 Q 1758.495 2981.889 1753.595 2979.348 L 1753.595 2979.348 L 1753.595 2979.348 Q 1748.696 2976.808 1743.614 2973.904 L 1743.614 2973.904 L 1743.614 2973.904 Q 1737.081 2970.274 1731.092 2967.008 L 1731.092 2967.008 L 1731.092 2967.008 Q 1725.103 2963.741 1719.296 2960.474 L 1719.296 2960.474 L 1719.296 2960.474 Q 1701.148 2949.949 1689.533 2936.882 L 1689.533 2936.882 L 1689.533 2936.882 Q 1677.919 2923.816 1676.467 2898.408 L 1676.467 2898.408 L 1676.467 2898.408 Q 1676.467 2898.046 1676.467 2897.501 L 1676.467 2897.501 L 1676.467 2897.501 Q 1676.467 2896.957 1676.467 2896.594 L 1676.467 2896.594 L 1676.467 2896.594 Q 1676.467 2896.231 1676.467 2895.686 L 1676.467 2895.686 L 1676.467 2895.686 Q 1676.467 2895.142 1676.467 2894.779 L 1676.467 2894.779 L 1676.467 2894.779 Q 1676.467 2861.024 1702.055 2841.968 L 1702.055 2841.968 L 1702.055 2841.968 Q 1727.644 2822.913 1759.221 2822.55 L 1759.221 2822.55 Z " fill-rule="evenodd" fill="rgb(52,184,215)"/></g><g style="mix-blend-mode:screen;"><path d=" M 397.154 2777.392 L 397.154 2777.228 L 397.154 2777.228 Q 397.154 2777.555 397.154 2777.637 L 397.154 2777.637 L 397.154 2777.637 Q 397.154 2777.718 397.154 2777.718 L 397.154 2777.718 L 397.154 2777.718 Q 397.154 2777.882 397.154 2777.963 L 397.154 2777.963 L 397.154 2777.963 Q 397.154 2778.045 397.154 2778.208 L 397.154 2778.208 L 397.154 2778.208 Q 397.154 2791.926 384.988 2802.051 L 384.988 2802.051 L 384.988 2802.051 Q 372.822 2812.176 358.288 2813.156 L 358.288 2813.156 L 358.288 2813.156 Q 357.471 2813.319 356.736 2813.319 L 356.736 2813.319 L 356.736 2813.319 Q 356.001 2813.319 355.185 2813.319 L 355.185 2813.319 L 355.185 2813.319 Q 353.062 2813.319 351.021 2813.074 L 351.021 2813.074 L 351.021 2813.074 Q 348.979 2812.829 346.856 2812.339 L 346.856 2812.339 L 340.977 2810.869 L 340.977 2845.163 L 340.977 2845.163 Q 340.977 2847.94 341.222 2849.981 L 341.222 2849.981 L 341.222 2849.981 Q 341.467 2852.022 343.1 2853.982 L 343.1 2853.982 L 343.1 2853.982 Q 344.08 2855.288 346.53 2856.105 L 346.53 2856.105 L 346.53 2856.105 Q 348.979 2856.921 351.756 2857.738 L 351.756 2857.738 L 351.756 2857.738 Q 352.245 2857.901 352.735 2857.983 L 352.735 2857.983 L 352.735 2857.983 Q 353.225 2858.064 353.715 2858.228 L 353.715 2858.228 L 353.715 2858.228 Q 355.022 2858.554 356.165 2858.963 L 356.165 2858.963 L 356.165 2858.963 Q 357.308 2859.371 358.288 2859.697 L 358.288 2859.697 L 361.88 2861.004 L 306.52 2861.004 L 310.276 2859.861 L 310.276 2859.861 Q 311.583 2859.697 313.297 2859.208 L 313.297 2859.208 L 313.297 2859.208 Q 315.012 2858.718 316.808 2858.228 L 316.808 2858.228 L 316.808 2858.228 Q 318.441 2857.574 320.074 2857.003 L 320.074 2857.003 L 320.074 2857.003 Q 321.707 2856.431 323.014 2855.778 L 323.014 2855.778 L 323.014 2855.778 Q 323.83 2855.452 324.484 2854.962 L 324.484 2854.962 L 324.484 2854.962 Q 325.137 2854.472 325.463 2854.145 L 325.463 2854.145 L 325.463 2854.145 Q 325.953 2853.329 326.362 2852.594 L 326.362 2852.594 L 326.362 2852.594 Q 326.77 2851.859 326.933 2851.042 L 326.933 2851.042 L 326.933 2851.042 Q 327.097 2850.226 327.178 2849.409 L 327.178 2849.409 L 327.178 2849.409 Q 327.26 2848.593 327.26 2847.94 L 327.26 2847.94 L 327.26 2847.94 Q 327.26 2847.45 327.26 2847.041 L 327.26 2847.041 L 327.26 2847.041 Q 327.26 2846.633 327.26 2846.306 L 327.26 2846.306 L 327.26 2846.306 Q 327.097 2845.817 327.097 2845.408 L 327.097 2845.408 L 327.097 2845.408 Q 327.097 2845 327.097 2844.673 L 327.097 2844.673 L 327.097 2756.162 L 327.097 2756.162 Q 327.097 2754.039 326.852 2752.243 L 326.852 2752.243 L 326.852 2752.243 Q 326.607 2750.446 325.3 2748.813 L 325.3 2748.813 L 325.3 2748.813 Q 324.157 2747.507 321.626 2746.282 L 321.626 2746.282 L 321.626 2746.282 Q 319.095 2745.057 316.318 2743.914 L 316.318 2743.914 L 316.318 2743.914 Q 314.685 2743.261 313.134 2742.689 L 313.134 2742.689 L 313.134 2742.689 Q 311.583 2742.118 310.276 2741.628 L 310.276 2741.628 L 306.683 2740.158 L 336.405 2740.158 L 336.405 2740.158 Q 338.854 2740.322 341.141 2740.24 L 341.141 2740.24 L 341.141 2740.24 Q 343.427 2740.158 345.55 2740.158 L 345.55 2740.158 L 345.55 2740.158 Q 346.04 2740.158 346.367 2740.158 L 346.367 2740.158 L 346.367 2740.158 Q 346.693 2740.158 347.02 2740.158 L 347.02 2740.158 L 347.02 2740.158 Q 348.816 2739.995 350.694 2739.995 L 350.694 2739.995 L 350.694 2739.995 Q 352.572 2739.995 354.532 2739.995 L 354.532 2739.995 L 354.532 2739.995 Q 356.165 2739.995 357.961 2739.995 L 357.961 2739.995 L 357.961 2739.995 Q 359.758 2739.995 361.554 2740.158 L 361.554 2740.158 L 361.554 2740.158 Q 363.35 2740.158 365.31 2740.485 L 365.31 2740.485 L 365.31 2740.485 Q 367.27 2740.811 369.229 2741.301 L 369.229 2741.301 L 369.229 2741.301 Q 379.354 2743.751 388.009 2752.569 L 388.009 2752.569 L 388.009 2752.569 Q 396.664 2761.388 397.154 2777.392 L 397.154 2777.392 Z  M 356.981 2749.14 L 356.981 2749.14 L 356.981 2749.14 Q 356.491 2749.14 356.001 2749.14 L 356.001 2749.14 L 356.001 2749.14 Q 355.512 2749.14 354.858 2749.14 L 354.858 2749.14 L 354.858 2749.14 Q 354.042 2749.14 353.307 2749.14 L 353.307 2749.14 L 353.307 2749.14 Q 352.572 2749.14 351.756 2749.14 L 351.756 2749.14 L 351.756 2749.14 Q 348.979 2749.303 346.448 2749.63 L 346.448 2749.63 L 346.448 2749.63 Q 343.917 2749.957 342.937 2750.61 L 342.937 2750.61 L 342.937 2750.61 Q 341.467 2751.59 341.222 2753.223 L 341.222 2753.223 L 341.222 2753.223 Q 340.977 2754.856 340.977 2756.652 L 340.977 2756.652 L 340.977 2756.652 Q 340.977 2756.815 340.977 2756.897 L 340.977 2756.897 L 340.977 2756.897 Q 340.977 2756.979 340.977 2757.142 L 340.977 2757.142 L 340.977 2802.704 L 345.877 2803.357 L 345.877 2803.357 Q 347.836 2803.847 349.714 2804.01 L 349.714 2804.01 L 349.714 2804.01 Q 351.592 2804.174 353.389 2804.174 L 353.389 2804.174 L 353.389 2804.174 Q 365.963 2804.174 374.782 2796.988 L 374.782 2796.988 L 374.782 2796.988 Q 383.6 2789.803 383.6 2776.902 L 383.6 2776.902 L 383.6 2776.902 Q 383.6 2776.412 383.6 2776.004 L 383.6 2776.004 L 383.6 2776.004 Q 383.6 2775.595 383.6 2775.269 L 383.6 2775.269 L 383.6 2775.269 Q 383.11 2764.327 377.394 2758.53 L 377.394 2758.53 L 377.394 2758.53 Q 371.679 2752.733 365.147 2750.61 L 365.147 2750.61 L 365.147 2750.61 Q 363.024 2749.957 360.982 2749.63 L 360.982 2749.63 L 360.982 2749.63 Q 358.941 2749.303 356.981 2749.14 L 356.981 2749.14 Z " fill-rule="evenodd" fill="rgb(52,184,215)"/></g></g></svg>